<?xml version="1.0"?>
<svg xmlns="http://www.w3.org/2000/svg" xmlns:xlink="http://www.w3.org/1999/xlink" version="1.1" id="Layer_1" x="0px" y="0px" viewBox="0 0 512 512" style="enable-background:new 0 0 512 512;" xml:space="preserve" width="512px" height="512px" class=""><g><g>
	<g>
		<path d="M500.68,243.265c-3.034-4.469-5.852-9.591-8.837-15.012c-11.882-21.582-28.153-51.138-71.767-51.138    c-9.464,0-18.056,2.129-25.814,5.673c-14.989-42.889-41.132-63.164-66.537-82.841c-23.242-18.001-45.195-35.004-61.092-70.599    l-11.93-26.712L238.7,27.129c-1.141,1.745-25.74,39.741-42.602,93.102c-32.685-11.824-65.481-24.927-94.668-43.788L82.648,64.304    l-5.375,21.707c-0.389,1.575-9.429,39.095,1.286,83.745c3.986,16.608,11.074,35.48,23.453,54.04    c1.418,12.453,6.849,49.847,23.927,87.665c13.145,29.109,30.178,51.847,50.586,67.882c-26.811,2.182-72.612,1.694-140.175-12.55    L0,359.132l19.463,31.644c1.045,1.7,26.182,42.016,76.238,75.261c29.5,19.592,61.612,32.715,95.449,39.006    c15.497,2.882,31.348,4.32,47.491,4.32c27.728,0,56.318-4.245,85.455-12.713c91.815-26.685,117.447-106.828,136.162-165.346    c9.666-30.222,18.796-58.768,32.914-64.164L512,259.945L500.68,243.265z M426.487,253.995c-5.877,0-10.641-4.764-10.641-10.641    c0-5.877,4.764-10.641,10.641-10.641c5.877,0,10.641,4.764,10.641,10.641C437.128,249.231,432.364,253.995,426.487,253.995z" data-original="#000000" class="active-path" data-old_color="#000000" fill="#FFFFFF"/>
	</g>
</g></g> </svg>
